%TF.GenerationSoftware,KiCad,Pcbnew,7.0.9*%
%TF.CreationDate,2023-12-11T14:06:04-05:00*%
%TF.ProjectId,pixel_char_fall2023,70697865-6c5f-4636-9861-725f66616c6c,rev?*%
%TF.SameCoordinates,Original*%
%TF.FileFunction,Soldermask,Bot*%
%TF.FilePolarity,Negative*%
%FSLAX46Y46*%
G04 Gerber Fmt 4.6, Leading zero omitted, Abs format (unit mm)*
G04 Created by KiCad (PCBNEW 7.0.9) date 2023-12-11 14:06:04*
%MOMM*%
%LPD*%
G01*
G04 APERTURE LIST*
%ADD10C,1.600000*%
%ADD11C,1.800000*%
%ADD12C,0.499999*%
%ADD13R,1.700000X1.700000*%
%ADD14O,1.700000X1.700000*%
%ADD15C,3.200000*%
G04 APERTURE END LIST*
D10*
%TO.C,J9*%
X95900000Y-83950000D03*
D11*
X100400000Y-83950000D03*
%TD*%
D12*
%TO.C,U19*%
X107300000Y-99825004D03*
X107300000Y-100925001D03*
%TD*%
D13*
%TO.C,J2*%
X147200000Y-78850000D03*
D14*
X149740000Y-78850000D03*
%TD*%
D15*
%TO.C,H6*%
X170686000Y-94985000D03*
%TD*%
%TO.C,H7*%
X125686000Y-110185000D03*
%TD*%
%TO.C,H2*%
X161609500Y-89135000D03*
%TD*%
D12*
%TO.C,U15*%
X189000000Y-105324996D03*
X189000000Y-104224999D03*
%TD*%
D15*
%TO.C,H1*%
X134709500Y-89135000D03*
%TD*%
D12*
%TO.C,U17*%
X107300000Y-103424996D03*
X107300000Y-102324999D03*
%TD*%
D15*
%TO.C,H5*%
X125686000Y-94985000D03*
%TD*%
%TO.C,H4*%
X161609500Y-116035000D03*
%TD*%
%TO.C,H8*%
X170686000Y-110185000D03*
%TD*%
D10*
%TO.C,U5*%
X203600000Y-72730000D03*
X201060000Y-72730000D03*
X198520000Y-72730000D03*
X195980000Y-72730000D03*
X193440000Y-72730000D03*
X190900000Y-72730000D03*
X188360000Y-72730000D03*
X185820000Y-72730000D03*
X183280000Y-72730000D03*
X180740000Y-72730000D03*
X178200000Y-72730000D03*
X175660000Y-72730000D03*
X173120000Y-72730000D03*
X170580000Y-72730000D03*
X170580000Y-75270000D03*
X170580000Y-77810000D03*
X170580000Y-80350000D03*
X170580000Y-82890000D03*
X170580000Y-85430000D03*
X170580000Y-87970000D03*
X173120000Y-87970000D03*
X175660000Y-87970000D03*
X178200000Y-87970000D03*
X180740000Y-87970000D03*
X183280000Y-87970000D03*
X185820000Y-87970000D03*
X188360000Y-87970000D03*
X190900000Y-87970000D03*
X193440000Y-87970000D03*
X195980000Y-87970000D03*
X198520000Y-87970000D03*
X201060000Y-87970000D03*
X203600000Y-87970000D03*
X201060000Y-85430000D03*
X175660000Y-85430000D03*
X178200000Y-85430000D03*
X175660000Y-82890000D03*
X178200000Y-82890000D03*
X175660000Y-80350000D03*
X178200000Y-80350000D03*
X175660000Y-77810000D03*
X178200000Y-77810000D03*
X175660000Y-75270000D03*
X178200000Y-75270000D03*
%TD*%
D12*
%TO.C,U13*%
X189000000Y-101725004D03*
X189000000Y-102825001D03*
%TD*%
D15*
%TO.C,H3*%
X134709500Y-116035000D03*
%TD*%
M02*
