M48
; DRILL file {KiCad 7.0.9} date Mon 11 Dec 2023 02:06:52 PM EST
; FORMAT={-:-/ absolute / metric / decimal}
; #@! TF.CreationDate,2023-12-11T14:06:52-05:00
; #@! TF.GenerationSoftware,Kicad,Pcbnew,7.0.9
; #@! TF.FileFunction,Plated,1,2,PTH
FMAT,2
METRIC
; #@! TA.AperFunction,Plated,PTH,ViaDrill
T1C0.200
; #@! TA.AperFunction,Plated,PTH,ComponentDrill
T2C0.203
; #@! TA.AperFunction,Plated,PTH,ComponentDrill
T3C1.000
; #@! TA.AperFunction,Plated,PTH,ComponentDrill
T4C1.100
%
G90
G05
T1
X101.915Y-104.3
X102.875Y-101.75
X103.1Y-76.05
X103.2Y-74.05
X103.2Y-107.8
X103.2Y-109.65
X103.65Y-104.3
X103.65Y-105.25
X104.475Y-112.2
X104.7Y-72.55
X104.9Y-102.05
X104.9Y-103.15
X105.0Y-76.75
X105.5Y-104.6
X105.5Y-105.55
X105.9Y-103.625
X106.0Y-112.55
X106.8Y-70.75
X107.0Y-75.25
X107.0Y-77.35
X107.325Y-113.125
X107.5Y-73.15
X108.75Y-99.625
X108.95Y-97.65
X108.95Y-98.6
X109.0Y-71.85
X109.125Y-102.125
X109.425Y-103.55
X109.65Y-100.3
X109.9Y-119.65
X110.3Y-99.692
X111.025Y-99.825
X111.5Y-70.75
X111.675Y-96.4
X111.675Y-97.325
X111.675Y-98.25
X111.675Y-98.95
X111.75Y-99.975
X112.0Y-103.35
X112.3Y-117.85
X112.4Y-103.85
X112.675Y-115.225
X112.675Y-116.15
X112.675Y-117.075
X112.8Y-104.325
X112.9Y-119.75
X112.9Y-120.35
X113.2Y-81.15
X113.2Y-82.05
X113.2Y-82.85
X113.2Y-83.65
X113.4Y-120.85
X113.9Y-121.35
X114.0Y-83.65
X114.4Y-122.45
X114.503Y-117.447
X114.725Y-124.875
X114.8Y-83.65
X114.8Y-122.85
X115.375Y-72.825
X115.375Y-73.775
X115.5Y-83.65
X115.6Y-115.95
X115.7Y-125.95
X115.75Y-72.4
X115.75Y-73.325
X115.75Y-74.25
X116.1Y-116.45
X116.125Y-72.825
X116.125Y-73.775
X116.2Y-70.75
X116.2Y-82.85
X116.2Y-83.65
X116.2Y-120.75
X116.2Y-121.45
X116.8Y-122.8
X117.297Y-117.45
X117.297Y-119.681
X117.625Y-127.375
X118.175Y-124.225
X118.4Y-73.05
X118.4Y-78.75
X118.65Y-124.875
X118.75Y-117.625
X119.0Y-105.0
X119.3Y-100.45
X119.35Y-125.425
X119.675Y-117.625
X119.7Y-125.95
X120.4Y-71.15
X120.6Y-117.625
X120.825Y-103.7
X121.1Y-122.75
X121.75Y-103.7
X122.4Y-73.05
X122.4Y-78.75
X122.675Y-103.7
X122.94Y-71.15
X124.1Y-124.35
X124.3Y-74.45
X125.48Y-71.15
X125.55Y-125.425
X126.525Y-122.8
X128.02Y-71.15
X128.55Y-74.45
X130.1Y-77.65
X130.56Y-71.15
X130.9Y-122.75
X131.3Y-77.65
X131.7Y-125.35
X131.9Y-76.85
X131.9Y-78.55
X132.275Y-73.5
X132.9Y-124.35
X133.1Y-71.15
X133.8Y-76.85
X133.8Y-78.55
X134.7Y-122.75
X135.64Y-71.15
X137.45Y-77.725
X137.52Y-74.35
X137.525Y-75.7
X137.57Y-77.0
X137.7Y-99.85
X137.7Y-105.25
X137.9Y-122.75
X138.18Y-71.15
X138.5Y-125.35
X138.79Y-74.35
X138.795Y-75.7
X138.84Y-77.0
X139.7Y-124.35
X139.8Y-100.15
X139.8Y-106.05
X140.06Y-74.35
X140.065Y-75.7
X140.11Y-77.0
X140.72Y-71.15
X141.005Y-85.66
X141.01Y-85.07
X141.045Y-80.55
X141.05Y-79.96
X141.33Y-74.35
X141.335Y-75.7
X141.38Y-77.0
X141.5Y-122.75
X141.635Y-85.07
X141.655Y-85.66
X141.675Y-79.96
X141.695Y-80.55
X142.31Y-85.07
X142.33Y-85.66
X142.35Y-79.96
X142.37Y-80.55
X142.6Y-74.35
X142.605Y-75.7
X142.65Y-77.0
X142.905Y-85.66
X142.91Y-85.07
X142.945Y-80.55
X142.95Y-79.96
X143.26Y-71.15
X143.5Y-100.15
X143.501Y-106.05
X143.87Y-74.35
X143.875Y-75.7
X143.92Y-77.0
X144.7Y-125.35
X145.1Y-122.75
X145.14Y-74.35
X145.145Y-75.7
X145.19Y-77.0
X145.6Y-107.15
X145.8Y-71.15
X146.4Y-113.15
X146.41Y-74.35
X146.415Y-75.7
X146.46Y-77.0
X146.83Y-92.9
X146.85Y-110.2
X147.325Y-114.25
X147.68Y-74.35
X147.685Y-75.7
X147.73Y-77.0
X147.9Y-124.35
X148.0Y-111.95
X148.3Y-107.15
X148.34Y-71.15
X148.52Y-111.46
X148.6Y-108.75
X148.8Y-93.85
X148.9Y-98.05
X148.95Y-74.35
X148.955Y-75.7
X149.0Y-77.0
X149.1Y-114.65
X149.4Y-106.75
X149.494Y-110.197
X149.5Y-92.9
X149.9Y-122.75
X150.15Y-112.35
X150.22Y-74.35
X150.225Y-75.7
X150.27Y-77.0
X150.88Y-71.15
X150.88Y-106.75
X151.1Y-125.35
X151.49Y-74.35
X151.495Y-75.7
X151.5Y-113.95
X151.54Y-77.0
X152.0Y-112.95
X152.0Y-114.95
X152.76Y-74.35
X152.765Y-75.7
X152.8Y-91.05
X152.8Y-92.55
X152.8Y-100.15
X152.8Y-105.05
X152.81Y-77.0
X152.9Y-122.15
X153.2Y-117.55
X153.42Y-71.15
X153.9Y-116.55
X154.0Y-117.55
X154.03Y-74.35
X154.035Y-75.7
X154.08Y-77.0
X154.5Y-124.35
X154.775Y-120.35
X155.3Y-74.35
X155.3Y-114.75
X155.3Y-116.25
X155.3Y-119.65
X155.305Y-75.7
X155.35Y-77.0
X155.9Y-119.15
X155.96Y-71.15
X156.1Y-125.35
X156.5Y-100.15
X156.5Y-105.05
X156.5Y-120.15
X156.57Y-74.35
X156.575Y-75.7
X156.62Y-77.0
X157.0Y-117.95
X157.84Y-74.35
X157.845Y-75.7
X157.89Y-77.0
X158.05Y-123.375
X158.45Y-124.175
X158.5Y-71.15
X158.9Y-122.55
X159.11Y-74.35
X159.115Y-75.7
X159.16Y-77.0
X159.3Y-124.95
X159.95Y-125.525
X160.38Y-74.35
X160.385Y-75.7
X160.43Y-77.0
X161.0Y-126.25
X161.04Y-71.15
X161.2Y-124.85
X161.65Y-74.35
X161.655Y-75.7
X161.7Y-77.0
X161.9Y-92.996
X161.9Y-94.675
X161.9Y-99.45
X162.088Y-105.737
X162.4Y-126.05
X162.5Y-124.95
X163.0Y-93.55
X163.0Y-94.65
X163.0Y-99.45
X163.0Y-105.325
X163.525Y-124.225
X163.55Y-125.175
X163.58Y-71.15
X163.9Y-105.75
X164.05Y-99.45
X164.2Y-125.75
X164.8Y-105.35
X165.15Y-99.45
X165.9Y-95.05
X166.12Y-71.15
X166.4Y-96.85
X166.5Y-99.85
X166.8Y-74.55
X167.9Y-75.85
X168.0Y-81.65
X168.6Y-98.15
X168.66Y-71.15
X169.0Y-79.55
X169.2Y-74.55
X169.2Y-75.85
X170.0Y-89.25
X171.1Y-84.15
X171.3Y-76.55
X171.3Y-79.15
X172.1Y-91.55
X172.7Y-76.55
X172.7Y-79.15
X172.8Y-82.35
X172.8Y-83.35
X172.9Y-74.65
X172.9Y-75.85
X172.9Y-77.35
X172.9Y-78.45
X173.0Y-89.35
X173.1Y-79.95
X173.1Y-80.85
X173.2Y-81.65
X173.4Y-84.15
X173.625Y-101.4
X173.737Y-127.912
X173.9Y-85.45
X173.9Y-122.275
X174.1Y-79.95
X174.1Y-80.85
X174.2Y-77.35
X174.2Y-78.35
X174.2Y-82.35
X174.2Y-83.35
X174.4Y-71.85
X174.4Y-74.65
X174.4Y-75.85
X174.4Y-122.575
X174.4Y-128.05
X174.55Y-101.4
X174.8Y-119.75
X174.9Y-97.75
X175.2Y-94.75
X175.3Y-120.25
X175.475Y-101.4
X175.8Y-89.35
X175.8Y-120.75
X176.3Y-115.95
X176.3Y-118.25
X176.85Y-100.55
X176.9Y-75.85
X176.9Y-128.15
X177.0Y-115.85
X177.25Y-104.85
X177.5Y-93.05
X178.1Y-89.35
X178.2Y-74.05
X179.6Y-77.15
X179.6Y-78.55
X179.8Y-85.65
X179.9Y-83.45
X180.0Y-75.95
X180.0Y-92.95
X180.0Y-94.75
X180.0Y-97.75
X180.4Y-89.45
X180.5Y-80.15
X181.3Y-114.25
X181.7Y-92.65
X181.8Y-85.25
X182.0Y-73.55
X182.0Y-75.95
X182.1Y-98.35
X182.1Y-128.15
X182.25Y-90.825
X182.5Y-77.15
X182.5Y-82.85
X182.6Y-89.35
X183.0Y-78.55
X183.0Y-91.85
X183.0Y-94.65
X183.1Y-99.75
X183.5Y-100.25
X183.5Y-103.325
X184.2Y-80.15
X184.4Y-75.95
X184.5Y-89.15
X184.65Y-105.975
X184.65Y-106.9
X184.65Y-107.825
X184.65Y-108.75
X184.7Y-99.75
X184.8Y-71.75
X184.8Y-98.95
X184.8Y-102.55
X184.9Y-91.55
X185.0Y-92.85
X185.4Y-86.05
X185.6Y-77.15
X185.9Y-95.35
X185.9Y-97.35
X186.3Y-128.15
X186.6Y-93.85
X186.8Y-78.55
X186.825Y-90.825
X186.875Y-101.6
X187.175Y-103.025
X187.45Y-106.525
X187.45Y-107.5
X187.55Y-105.525
X187.625Y-111.975
X187.625Y-113.925
X187.625Y-115.875
X187.625Y-117.8
X187.625Y-119.825
X187.625Y-121.725
X187.9Y-90.85
X187.9Y-92.65
X188.1Y-80.15
X188.2Y-75.75
X188.6Y-90.85
X188.6Y-92.65
X188.8Y-85.65
X189.3Y-89.85
X189.6Y-87.35
X189.6Y-92.15
X189.625Y-111.975
X189.625Y-113.925
X189.625Y-115.875
X189.625Y-117.825
X189.625Y-119.825
X189.625Y-121.725
X189.8Y-77.55
X190.1Y-90.75
X190.2Y-82.35
X190.4Y-101.525
X190.475Y-99.6
X190.475Y-100.55
X190.5Y-75.85
X190.7Y-128.15
X190.9Y-92.15
X191.0Y-89.25
X191.2Y-98.75
X191.4Y-101.95
X191.4Y-103.15
X191.6Y-93.25
X192.0Y-90.75
X192.0Y-101.95
X192.0Y-103.15
X192.15Y-115.16
X192.3Y-119.06
X192.325Y-112.025
X192.325Y-113.035
X192.525Y-120.91
X192.6Y-84.55
X192.6Y-86.05
X192.7Y-101.15
X192.9Y-75.65
X192.975Y-95.475
X192.975Y-97.35
X193.425Y-99.175
X193.7Y-81.85
X194.0Y-91.075
X194.0Y-94.125
X194.05Y-103.3
X194.385Y-100.85
X194.6Y-91.075
X194.6Y-94.125
X194.7Y-87.05
X195.2Y-77.65
X195.2Y-89.85
X195.2Y-91.075
X195.2Y-94.125
X195.3Y-75.05
X196.1Y-94.05
X196.3Y-128.15
X196.6Y-91.45
X197.5Y-80.55
X197.8Y-85.85
X198.4Y-89.85
X199.075Y-117.825
X199.075Y-118.825
X199.1Y-78.45
X199.1Y-112.025
X199.1Y-113.025
X199.175Y-115.75
X199.6Y-74.25
X199.7Y-120.15
X200.075Y-114.35
X200.6Y-83.35
X201.1Y-128.15
X201.5Y-71.05
X201.65Y-120.15
X202.3Y-127.55
X202.4Y-81.55
X202.4Y-88.85
X202.5Y-76.85
X202.6Y-86.25
X202.75Y-114.35
X202.8Y-82.65
X202.8Y-83.25
X202.8Y-83.85
X202.8Y-84.45
X203.5Y-126.35
X204.4Y-82.65
X204.4Y-83.25
X204.4Y-83.85
X204.4Y-84.45
X204.5Y-125.15
X205.3Y-124.15
T2
X107.3Y-99.825
X107.3Y-100.925
X107.3Y-102.325
X107.3Y-103.425
X189.0Y-101.725
X189.0Y-102.825
X189.0Y-104.225
X189.0Y-105.325
T3
X147.2Y-78.85
X149.74Y-78.85
T4
X170.58Y-72.73
X170.58Y-75.27
X170.58Y-77.81
X170.58Y-80.35
X170.58Y-82.89
X170.58Y-85.43
X170.58Y-87.97
X173.12Y-72.73
X173.12Y-87.97
X175.66Y-72.73
X175.66Y-75.27
X175.66Y-77.81
X175.66Y-80.35
X175.66Y-82.89
X175.66Y-85.43
X175.66Y-87.97
X178.2Y-72.73
X178.2Y-75.27
X178.2Y-77.81
X178.2Y-80.35
X178.2Y-82.89
X178.2Y-85.43
X178.2Y-87.97
X180.74Y-72.73
X180.74Y-87.97
X183.28Y-72.73
X183.28Y-87.97
X185.82Y-72.73
X185.82Y-87.97
X188.36Y-72.73
X188.36Y-87.97
X190.9Y-72.73
X190.9Y-87.97
X193.44Y-72.73
X193.44Y-87.97
X195.98Y-72.73
X195.98Y-87.97
X198.52Y-72.73
X198.52Y-87.97
X201.06Y-72.73
X201.06Y-85.43
X201.06Y-87.97
X203.6Y-72.73
X203.6Y-87.97
T0
M30
