%TF.GenerationSoftware,KiCad,Pcbnew,7.0.9*%
%TF.CreationDate,2023-12-11T14:06:03-05:00*%
%TF.ProjectId,pixel_char_fall2023,70697865-6c5f-4636-9861-725f66616c6c,rev?*%
%TF.SameCoordinates,Original*%
%TF.FileFunction,Soldermask,Top*%
%TF.FilePolarity,Negative*%
%FSLAX46Y46*%
G04 Gerber Fmt 4.6, Leading zero omitted, Abs format (unit mm)*
G04 Created by KiCad (PCBNEW 7.0.9) date 2023-12-11 14:06:03*
%MOMM*%
%LPD*%
G01*
G04 APERTURE LIST*
G04 Aperture macros list*
%AMRoundRect*
0 Rectangle with rounded corners*
0 $1 Rounding radius*
0 $2 $3 $4 $5 $6 $7 $8 $9 X,Y pos of 4 corners*
0 Add a 4 corners polygon primitive as box body*
4,1,4,$2,$3,$4,$5,$6,$7,$8,$9,$2,$3,0*
0 Add four circle primitives for the rounded corners*
1,1,$1+$1,$2,$3*
1,1,$1+$1,$4,$5*
1,1,$1+$1,$6,$7*
1,1,$1+$1,$8,$9*
0 Add four rect primitives between the rounded corners*
20,1,$1+$1,$2,$3,$4,$5,0*
20,1,$1+$1,$4,$5,$6,$7,0*
20,1,$1+$1,$6,$7,$8,$9,0*
20,1,$1+$1,$8,$9,$2,$3,0*%
%AMOutline5P*
0 Free polygon, 5 corners , with rotation*
0 The origin of the aperture is its center*
0 number of corners: always 5*
0 $1 to $10 corner X, Y*
0 $11 Rotation angle, in degrees counterclockwise*
0 create outline with 5 corners*
4,1,5,$1,$2,$3,$4,$5,$6,$7,$8,$9,$10,$1,$2,$11*%
%AMOutline6P*
0 Free polygon, 6 corners , with rotation*
0 The origin of the aperture is its center*
0 number of corners: always 6*
0 $1 to $12 corner X, Y*
0 $13 Rotation angle, in degrees counterclockwise*
0 create outline with 6 corners*
4,1,6,$1,$2,$3,$4,$5,$6,$7,$8,$9,$10,$11,$12,$1,$2,$13*%
%AMOutline7P*
0 Free polygon, 7 corners , with rotation*
0 The origin of the aperture is its center*
0 number of corners: always 7*
0 $1 to $14 corner X, Y*
0 $15 Rotation angle, in degrees counterclockwise*
0 create outline with 7 corners*
4,1,7,$1,$2,$3,$4,$5,$6,$7,$8,$9,$10,$11,$12,$13,$14,$1,$2,$15*%
%AMOutline8P*
0 Free polygon, 8 corners , with rotation*
0 The origin of the aperture is its center*
0 number of corners: always 8*
0 $1 to $16 corner X, Y*
0 $17 Rotation angle, in degrees counterclockwise*
0 create outline with 8 corners*
4,1,8,$1,$2,$3,$4,$5,$6,$7,$8,$9,$10,$11,$12,$13,$14,$15,$16,$1,$2,$17*%
G04 Aperture macros list end*
%ADD10C,0.100000*%
%ADD11R,0.558800X0.203200*%
%ADD12R,3.606800X2.387600*%
%ADD13R,0.812800X0.254000*%
%ADD14R,0.254000X0.812800*%
%ADD15R,3.200400X3.200400*%
%ADD16RoundRect,0.140000X0.170000X-0.140000X0.170000X0.140000X-0.170000X0.140000X-0.170000X-0.140000X0*%
%ADD17C,1.200000*%
%ADD18Outline5P,-0.650000X0.260000X-0.260000X0.650000X0.650000X0.650000X0.650000X-0.650000X-0.650000X-0.650000X180.000000*%
%ADD19Outline5P,-0.650000X0.260000X-0.260000X0.650000X0.650000X0.650000X0.650000X-0.650000X-0.650000X-0.650000X270.000000*%
%ADD20Outline5P,-0.650000X0.260000X-0.260000X0.650000X0.650000X0.650000X0.650000X-0.650000X-0.650000X-0.650000X90.000000*%
%ADD21Outline5P,-0.650000X0.260000X-0.260000X0.650000X0.650000X0.650000X0.650000X-0.650000X-0.650000X-0.650000X0.000000*%
%ADD22RoundRect,0.135000X0.185000X-0.135000X0.185000X0.135000X-0.185000X0.135000X-0.185000X-0.135000X0*%
%ADD23RoundRect,0.140000X0.140000X0.170000X-0.140000X0.170000X-0.140000X-0.170000X0.140000X-0.170000X0*%
%ADD24RoundRect,0.140000X-0.170000X0.140000X-0.170000X-0.140000X0.170000X-0.140000X0.170000X0.140000X0*%
%ADD25RoundRect,0.140000X-0.140000X-0.170000X0.140000X-0.170000X0.140000X0.170000X-0.140000X0.170000X0*%
%ADD26C,1.600000*%
%ADD27C,1.800000*%
%ADD28R,2.000000X2.000000*%
%ADD29RoundRect,0.135000X0.135000X0.185000X-0.135000X0.185000X-0.135000X-0.185000X0.135000X-0.185000X0*%
%ADD30RoundRect,0.100000X-0.130000X-0.100000X0.130000X-0.100000X0.130000X0.100000X-0.130000X0.100000X0*%
%ADD31C,2.000000*%
%ADD32R,0.499999X0.249999*%
%ADD33C,0.499999*%
%ADD34R,0.900001X1.599999*%
%ADD35R,1.651000X1.651000*%
%ADD36RoundRect,0.135000X-0.185000X0.135000X-0.185000X-0.135000X0.185000X-0.135000X0.185000X0.135000X0*%
%ADD37RoundRect,0.100000X0.130000X0.100000X-0.130000X0.100000X-0.130000X-0.100000X0.130000X-0.100000X0*%
%ADD38R,1.700000X1.700000*%
%ADD39O,1.700000X1.700000*%
%ADD40RoundRect,0.225000X-0.250000X0.225000X-0.250000X-0.225000X0.250000X-0.225000X0.250000X0.225000X0*%
%ADD41R,1.016000X0.457200*%
%ADD42R,0.203200X0.711200*%
%ADD43R,1.295400X0.889000*%
%ADD44C,0.254000*%
%ADD45C,3.200000*%
%ADD46R,0.711200X0.304800*%
%ADD47R,0.304800X0.711200*%
%ADD48R,2.692400X2.692400*%
%ADD49RoundRect,0.250000X-0.325000X-0.650000X0.325000X-0.650000X0.325000X0.650000X-0.325000X0.650000X0*%
%ADD50RoundRect,0.135000X-0.135000X-0.185000X0.135000X-0.185000X0.135000X0.185000X-0.135000X0.185000X0*%
%ADD51R,0.787400X0.254000*%
%ADD52R,1.752600X2.489200*%
%ADD53R,0.203200X0.762000*%
%ADD54R,0.762000X0.203200*%
%ADD55RoundRect,0.250000X-0.700000X0.275000X-0.700000X-0.275000X0.700000X-0.275000X0.700000X0.275000X0*%
%ADD56R,0.711200X0.228600*%
%ADD57RoundRect,0.225000X0.250000X-0.225000X0.250000X0.225000X-0.250000X0.225000X-0.250000X-0.225000X0*%
%ADD58RoundRect,0.200000X0.200000X0.275000X-0.200000X0.275000X-0.200000X-0.275000X0.200000X-0.275000X0*%
G04 APERTURE END LIST*
D10*
%TO.C,U1*%
X146281000Y-99537000D02*
X150091000Y-99537000D01*
X150091000Y-99537000D02*
X150091000Y-105633000D01*
X150091000Y-105633000D02*
X146281000Y-105633000D01*
X146281000Y-105633000D02*
X146281000Y-99537000D01*
G36*
X146281000Y-99537000D02*
G01*
X150091000Y-99537000D01*
X150091000Y-105633000D01*
X146281000Y-105633000D01*
X146281000Y-99537000D01*
G37*
%TD*%
D11*
%TO.C,U11*%
X193271900Y-114210000D03*
X193271900Y-114609999D03*
X193271900Y-115010001D03*
X193271900Y-115410000D03*
X193271900Y-115809999D03*
X193271900Y-116210001D03*
X193271900Y-116610000D03*
X198428100Y-116610000D03*
X198428100Y-116210001D03*
X198428100Y-115809999D03*
X198428100Y-115410000D03*
X198428100Y-115010001D03*
X198428100Y-114609999D03*
X198428100Y-114210000D03*
D12*
X195850000Y-115410000D03*
%TD*%
D11*
%TO.C,U10*%
X193260950Y-120010000D03*
X193260950Y-120409999D03*
X193260950Y-120810001D03*
X193260950Y-121210000D03*
X193260950Y-121609999D03*
X193260950Y-122010001D03*
X193260950Y-122410000D03*
X198417150Y-122410000D03*
X198417150Y-122010001D03*
X198417150Y-121609999D03*
X198417150Y-121210000D03*
X198417150Y-120810001D03*
X198417150Y-120409999D03*
X198417150Y-120010000D03*
D12*
X195839050Y-121210000D03*
%TD*%
D13*
%TO.C,U3*%
X182776100Y-104324999D03*
X182776100Y-103825000D03*
X182776100Y-103325001D03*
X182776100Y-102825000D03*
X182776100Y-102325000D03*
X182776100Y-101824999D03*
X182776100Y-101325000D03*
X182776100Y-100825001D03*
D14*
X182074999Y-100123900D03*
X181575000Y-100123900D03*
X181075001Y-100123900D03*
X180575000Y-100123900D03*
X180075000Y-100123900D03*
X179574999Y-100123900D03*
X179075000Y-100123900D03*
X178575001Y-100123900D03*
D13*
X177873900Y-100825001D03*
X177873900Y-101325000D03*
X177873900Y-101824999D03*
X177873900Y-102325000D03*
X177873900Y-102825000D03*
X177873900Y-103325001D03*
X177873900Y-103825000D03*
X177873900Y-104324999D03*
D14*
X178575001Y-105026100D03*
X179075000Y-105026100D03*
X179574999Y-105026100D03*
X180075000Y-105026100D03*
X180575000Y-105026100D03*
X181075001Y-105026100D03*
X181575000Y-105026100D03*
X182074999Y-105026100D03*
D15*
X180325000Y-102575000D03*
%TD*%
D13*
%TO.C,U2*%
X113523900Y-100825001D03*
X113523900Y-101325000D03*
X113523900Y-101824999D03*
X113523900Y-102325000D03*
X113523900Y-102825000D03*
X113523900Y-103325001D03*
X113523900Y-103825000D03*
X113523900Y-104324999D03*
D14*
X114225001Y-105026100D03*
X114725000Y-105026100D03*
X115224999Y-105026100D03*
X115725000Y-105026100D03*
X116225000Y-105026100D03*
X116725001Y-105026100D03*
X117225000Y-105026100D03*
X117724999Y-105026100D03*
D13*
X118426100Y-104324999D03*
X118426100Y-103825000D03*
X118426100Y-103325001D03*
X118426100Y-102825000D03*
X118426100Y-102325000D03*
X118426100Y-101824999D03*
X118426100Y-101325000D03*
X118426100Y-100825001D03*
D14*
X117724999Y-100123900D03*
X117225000Y-100123900D03*
X116725001Y-100123900D03*
X116225000Y-100123900D03*
X115725000Y-100123900D03*
X115224999Y-100123900D03*
X114725000Y-100123900D03*
X114225001Y-100123900D03*
D15*
X115975000Y-102575000D03*
%TD*%
D16*
%TO.C,C86*%
X104450000Y-100605000D03*
X104450000Y-99645000D03*
%TD*%
D17*
%TO.C,J6*%
X198925000Y-102025000D03*
D18*
X197600000Y-100700000D03*
D19*
X197600000Y-103350000D03*
D20*
X200250000Y-100700000D03*
D21*
X200250000Y-103350000D03*
%TD*%
D22*
%TO.C,R20*%
X190875000Y-105545000D03*
X190875000Y-104525000D03*
%TD*%
D23*
%TO.C,C91*%
X111980000Y-116150000D03*
X111020000Y-116150000D03*
%TD*%
D16*
%TO.C,C57*%
X189625000Y-122690000D03*
X189625000Y-121730000D03*
%TD*%
D24*
%TO.C,C88*%
X119682000Y-118295001D03*
X119682000Y-119255001D03*
%TD*%
D25*
%TO.C,C71*%
X193425000Y-100850000D03*
X194385000Y-100850000D03*
%TD*%
D26*
%TO.C,J9*%
X95900000Y-83950000D03*
D27*
X100400000Y-83950000D03*
D28*
X95900000Y-78450000D03*
X102050000Y-78450000D03*
X95900000Y-89450000D03*
X102050000Y-89450000D03*
%TD*%
D29*
%TO.C,R2*%
X186820000Y-90225000D03*
X185800000Y-90225000D03*
%TD*%
D17*
%TO.C,J7*%
X95950000Y-98937500D03*
D21*
X97275000Y-100262500D03*
D20*
X97275000Y-97612500D03*
D19*
X94625000Y-100262500D03*
D18*
X94625000Y-97612500D03*
%TD*%
D16*
%TO.C,C68*%
X187625000Y-118780000D03*
X187625000Y-117820000D03*
%TD*%
D30*
%TO.C,C20*%
X149494500Y-110897500D03*
X150134500Y-110897500D03*
%TD*%
D22*
%TO.C,R5*%
X188625000Y-122720000D03*
X188625000Y-121700000D03*
%TD*%
D23*
%TO.C,C54*%
X198439850Y-117810000D03*
X197479850Y-117810000D03*
%TD*%
D31*
%TO.C,TP3*%
X130390000Y-74750000D03*
%TD*%
D22*
%TO.C,R11*%
X188625000Y-112980000D03*
X188625000Y-111960000D03*
%TD*%
D32*
%TO.C,U19*%
X106349999Y-99625002D03*
X106349999Y-100125000D03*
X106349999Y-100625002D03*
X106349999Y-101125001D03*
X108250001Y-101125001D03*
X108250001Y-100625002D03*
X108250001Y-100125000D03*
X108250001Y-99625002D03*
D33*
X107300000Y-99825004D03*
D34*
X107300000Y-100375000D03*
D33*
X107300000Y-100925001D03*
%TD*%
D13*
%TO.C,U20*%
X114503000Y-117799999D03*
X114503000Y-118300000D03*
X114503000Y-118800000D03*
X114503000Y-119300001D03*
D14*
X115149999Y-119947000D03*
X115650000Y-119947000D03*
X116150000Y-119947000D03*
X116650001Y-119947000D03*
D13*
X117297000Y-119300001D03*
X117297000Y-118800000D03*
X117297000Y-118300000D03*
X117297000Y-117799999D03*
D14*
X116650001Y-117153000D03*
X116150000Y-117153000D03*
X115650000Y-117153000D03*
X115149999Y-117153000D03*
D35*
X115900000Y-118550000D03*
%TD*%
D23*
%TO.C,C92*%
X111980000Y-117075000D03*
X111020000Y-117075000D03*
%TD*%
%TO.C,C51*%
X198410000Y-113010000D03*
X197450000Y-113010000D03*
%TD*%
D31*
%TO.C,TP2*%
X112750000Y-73025000D03*
%TD*%
D36*
%TO.C,R4*%
X190675000Y-121700000D03*
X190675000Y-122720000D03*
%TD*%
D23*
%TO.C,C53*%
X198439850Y-118810000D03*
X197479850Y-118810000D03*
%TD*%
D24*
%TO.C,C43*%
X118758899Y-79860800D03*
X118758899Y-80820800D03*
%TD*%
D17*
%TO.C,J1*%
X104328000Y-117775001D03*
D21*
X105653000Y-119100001D03*
D20*
X105653000Y-116450001D03*
D19*
X103003000Y-119100001D03*
D18*
X103003000Y-116450001D03*
%TD*%
D36*
%TO.C,R22*%
X101200000Y-102315000D03*
X101200000Y-103335000D03*
%TD*%
%TO.C,R24*%
X110125000Y-101105000D03*
X110125000Y-102125000D03*
%TD*%
D30*
%TO.C,C10*%
X149494500Y-95672500D03*
X150134500Y-95672500D03*
%TD*%
D23*
%TO.C,C96*%
X183985000Y-105975000D03*
X183025000Y-105975000D03*
%TD*%
D24*
%TO.C,C42*%
X120233899Y-79860800D03*
X120233899Y-80820800D03*
%TD*%
D23*
%TO.C,C90*%
X111980000Y-115225000D03*
X111020000Y-115225000D03*
%TD*%
D37*
%TO.C,C15*%
X146824500Y-109497500D03*
X146184500Y-109497500D03*
%TD*%
%TO.C,C16*%
X146824500Y-110197500D03*
X146184500Y-110197500D03*
%TD*%
D22*
%TO.C,R19*%
X187175000Y-104045000D03*
X187175000Y-103025000D03*
%TD*%
D16*
%TO.C,C35*%
X201225000Y-90810000D03*
X201225000Y-89850000D03*
%TD*%
%TO.C,C76*%
X192425000Y-97350000D03*
X192425000Y-96390000D03*
%TD*%
D30*
%TO.C,C7*%
X149494500Y-93572500D03*
X150134500Y-93572500D03*
%TD*%
D38*
%TO.C,J2*%
X147200000Y-78850000D03*
D39*
X149740000Y-78850000D03*
%TD*%
D23*
%TO.C,C31*%
X183985000Y-108750000D03*
X183025000Y-108750000D03*
%TD*%
%TO.C,C81*%
X102875000Y-105250000D03*
X101915000Y-105250000D03*
%TD*%
D25*
%TO.C,C45*%
X120920600Y-74765800D03*
X121880600Y-74765800D03*
%TD*%
D30*
%TO.C,C8*%
X149494500Y-94272500D03*
X150134500Y-94272500D03*
%TD*%
D36*
%TO.C,R25*%
X109125000Y-101105000D03*
X109125000Y-102125000D03*
%TD*%
%TO.C,R28*%
X109403000Y-117780001D03*
X109403000Y-118800001D03*
%TD*%
D16*
%TO.C,C62*%
X187625000Y-120790000D03*
X187625000Y-119830000D03*
%TD*%
%TO.C,C26*%
X122675000Y-103055000D03*
X122675000Y-102095000D03*
%TD*%
D25*
%TO.C,C73*%
X188100000Y-106525000D03*
X189060000Y-106525000D03*
%TD*%
D23*
%TO.C,C82*%
X108200000Y-98625000D03*
X107240000Y-98625000D03*
%TD*%
D40*
%TO.C,C39*%
X113218699Y-78390800D03*
X113218699Y-79940800D03*
%TD*%
D30*
%TO.C,C11*%
X149494500Y-96372500D03*
X150134500Y-96372500D03*
%TD*%
D36*
%TO.C,R8*%
X190675000Y-119800000D03*
X190675000Y-120820000D03*
%TD*%
D23*
%TO.C,C95*%
X183985000Y-106900000D03*
X183025000Y-106900000D03*
%TD*%
D25*
%TO.C,C50*%
X193350000Y-112025000D03*
X194310000Y-112025000D03*
%TD*%
D41*
%TO.C,PD1*%
X139818000Y-97085000D03*
X143501000Y-97085000D03*
%TD*%
D30*
%TO.C,C22*%
X149494500Y-109497500D03*
X150134500Y-109497500D03*
%TD*%
D37*
%TO.C,C2*%
X146824500Y-96372500D03*
X146184500Y-96372500D03*
%TD*%
D40*
%TO.C,C46*%
X120000000Y-76000000D03*
X120000000Y-77550000D03*
%TD*%
D16*
%TO.C,C75*%
X192425000Y-95485000D03*
X192425000Y-94525000D03*
%TD*%
D25*
%TO.C,C48*%
X126843100Y-80275001D03*
X127803100Y-80275001D03*
%TD*%
D22*
%TO.C,R18*%
X186175000Y-104045000D03*
X186175000Y-103025000D03*
%TD*%
D17*
%TO.C,J4*%
X198925000Y-96025000D03*
D18*
X197600000Y-94700000D03*
D19*
X197600000Y-97350000D03*
D20*
X200250000Y-94700000D03*
D21*
X200250000Y-97350000D03*
%TD*%
D42*
%TO.C,U7*%
X117124999Y-78028300D03*
X117625000Y-78028300D03*
X118125000Y-78028300D03*
X118625001Y-78028300D03*
X118625001Y-76021700D03*
X118125000Y-76021700D03*
X117625000Y-76021700D03*
X117124999Y-76021700D03*
D43*
X117875000Y-77025000D03*
%TD*%
D22*
%TO.C,R15*%
X188625000Y-118810000D03*
X188625000Y-117790000D03*
%TD*%
D44*
%TO.C,U12*%
X193025000Y-102125000D03*
X193425000Y-102125000D03*
X193825000Y-102125000D03*
X193025000Y-102525000D03*
X193425000Y-102525000D03*
X193825000Y-102525000D03*
%TD*%
D16*
%TO.C,C63*%
X189625000Y-112950000D03*
X189625000Y-111990000D03*
%TD*%
D36*
%TO.C,R17*%
X186175000Y-101105000D03*
X186175000Y-102125000D03*
%TD*%
D25*
%TO.C,C78*%
X106350000Y-104600000D03*
X107310000Y-104600000D03*
%TD*%
D45*
%TO.C,H6*%
X170686000Y-94985000D03*
%TD*%
D16*
%TO.C,C60*%
X187625000Y-114900000D03*
X187625000Y-113940000D03*
%TD*%
D24*
%TO.C,C87*%
X120607000Y-118295001D03*
X120607000Y-119255001D03*
%TD*%
D25*
%TO.C,C27*%
X112315000Y-97325000D03*
X113275000Y-97325000D03*
%TD*%
D23*
%TO.C,C52*%
X198410000Y-112010000D03*
X197450000Y-112010000D03*
%TD*%
D45*
%TO.C,H7*%
X125686000Y-110185000D03*
%TD*%
D37*
%TO.C,C5*%
X146824500Y-94272500D03*
X146184500Y-94272500D03*
%TD*%
D46*
%TO.C,U9*%
X128286200Y-78050000D03*
X128286200Y-77400002D03*
X128286200Y-76750000D03*
X128286200Y-76100002D03*
D47*
X127318099Y-75131901D03*
X126668101Y-75131901D03*
X126018099Y-75131901D03*
X125368101Y-75131901D03*
D46*
X124400000Y-76100002D03*
X124400000Y-76750000D03*
X124400000Y-77400002D03*
X124400000Y-78050000D03*
D47*
X125368101Y-79018101D03*
X126018099Y-79018101D03*
X126668101Y-79018101D03*
X127318099Y-79018101D03*
D48*
X126343100Y-77075001D03*
%TD*%
D25*
%TO.C,C28*%
X112315000Y-96400000D03*
X113275000Y-96400000D03*
%TD*%
D45*
%TO.C,H2*%
X161609500Y-89135000D03*
%TD*%
D32*
%TO.C,U15*%
X189950001Y-105524998D03*
X189950001Y-105025000D03*
X189950001Y-104524998D03*
X189950001Y-104024999D03*
X188049999Y-104024999D03*
X188049999Y-104524998D03*
X188049999Y-105025000D03*
X188049999Y-105524998D03*
D33*
X189000000Y-105324996D03*
D34*
X189000000Y-104775000D03*
D33*
X189000000Y-104224999D03*
%TD*%
D49*
%TO.C,C37*%
X108643699Y-79790800D03*
X111593699Y-79790800D03*
%TD*%
D36*
%TO.C,R10*%
X190675000Y-111960000D03*
X190675000Y-112980000D03*
%TD*%
D31*
%TO.C,TP7*%
X182500000Y-112640000D03*
%TD*%
D25*
%TO.C,C72*%
X193425000Y-99900000D03*
X194385000Y-99900000D03*
%TD*%
D16*
%TO.C,C66*%
X187625000Y-116840000D03*
X187625000Y-115880000D03*
%TD*%
D50*
%TO.C,R21*%
X189910000Y-106530000D03*
X190930000Y-106530000D03*
%TD*%
D31*
%TO.C,TP5*%
X179500000Y-114640000D03*
%TD*%
D30*
%TO.C,C19*%
X149494500Y-111597500D03*
X150134500Y-111597500D03*
%TD*%
D23*
%TO.C,C83*%
X108200000Y-97655000D03*
X107240000Y-97655000D03*
%TD*%
D37*
%TO.C,C6*%
X146824500Y-93572500D03*
X146184500Y-93572500D03*
%TD*%
%TO.C,C17*%
X146824500Y-110897500D03*
X146184500Y-110897500D03*
%TD*%
D51*
%TO.C,U6*%
X111654199Y-77465801D03*
X111654199Y-76965800D03*
X111654199Y-76465800D03*
X111654199Y-75965799D03*
X108733199Y-75965799D03*
X108733199Y-76465800D03*
X108733199Y-76965800D03*
X108733199Y-77465801D03*
D52*
X110193699Y-76715800D03*
%TD*%
D36*
%TO.C,R14*%
X190675000Y-117790000D03*
X190675000Y-118810000D03*
%TD*%
D25*
%TO.C,C74*%
X188100000Y-107495000D03*
X189060000Y-107495000D03*
%TD*%
D30*
%TO.C,C23*%
X149494500Y-108797500D03*
X150134500Y-108797500D03*
%TD*%
D36*
%TO.C,R27*%
X105425000Y-97680000D03*
X105425000Y-98700000D03*
%TD*%
D41*
%TO.C,PD4*%
X156501000Y-108085000D03*
X152818000Y-108085000D03*
%TD*%
D16*
%TO.C,C61*%
X189625000Y-120790000D03*
X189625000Y-119830000D03*
%TD*%
D25*
%TO.C,C55*%
X193279850Y-118810000D03*
X194239850Y-118810000D03*
%TD*%
D41*
%TO.C,PD2*%
X156501000Y-97085000D03*
X152818000Y-97085000D03*
%TD*%
D25*
%TO.C,C36*%
X116970599Y-74762500D03*
X117930599Y-74762500D03*
%TD*%
D16*
%TO.C,C58*%
X187625000Y-122690000D03*
X187625000Y-121730000D03*
%TD*%
D24*
%TO.C,C89*%
X118757000Y-118295001D03*
X118757000Y-119255001D03*
%TD*%
D40*
%TO.C,C41*%
X115750000Y-75325000D03*
X115750000Y-76875000D03*
%TD*%
D41*
%TO.C,PD3*%
X139818000Y-108085000D03*
X143501000Y-108085000D03*
%TD*%
D24*
%TO.C,C85*%
X103875000Y-107800000D03*
X103875000Y-108760000D03*
%TD*%
D42*
%TO.C,U8*%
X121380598Y-78065800D03*
X121880599Y-78065800D03*
X122380599Y-78065800D03*
X122880600Y-78065800D03*
X122880600Y-76059200D03*
X122380599Y-76059200D03*
X121880599Y-76059200D03*
X121380598Y-76059200D03*
D43*
X122130599Y-77062500D03*
%TD*%
D17*
%TO.C,J3*%
X95950000Y-110112500D03*
D21*
X97275000Y-111437500D03*
D20*
X97275000Y-108787500D03*
D19*
X94625000Y-111437500D03*
D18*
X94625000Y-108787500D03*
%TD*%
D16*
%TO.C,C34*%
X202150000Y-90810000D03*
X202150000Y-89850000D03*
%TD*%
%TO.C,C77*%
X191820000Y-106500000D03*
X191820000Y-105540000D03*
%TD*%
D30*
%TO.C,C9*%
X149494500Y-94972500D03*
X150134500Y-94972500D03*
%TD*%
D24*
%TO.C,C84*%
X103875000Y-109665000D03*
X103875000Y-110625000D03*
%TD*%
D23*
%TO.C,C32*%
X183985000Y-107825000D03*
X183025000Y-107825000D03*
%TD*%
D25*
%TO.C,C47*%
X124883100Y-80275001D03*
X125843100Y-80275001D03*
%TD*%
D31*
%TO.C,TP9*%
X179500000Y-118640000D03*
%TD*%
D23*
%TO.C,C69*%
X189950000Y-100550000D03*
X188990000Y-100550000D03*
%TD*%
D16*
%TO.C,C99*%
X120825000Y-103055000D03*
X120825000Y-102095000D03*
%TD*%
D53*
%TO.C,U4*%
X148326900Y-112676900D03*
X147926900Y-112676900D03*
D54*
X147250600Y-112950001D03*
X147250600Y-113350000D03*
X147250600Y-113749999D03*
D53*
X147926900Y-114023100D03*
X148326900Y-114023100D03*
D54*
X149003200Y-113749999D03*
X149003200Y-113350000D03*
X149003200Y-112950001D03*
%TD*%
D25*
%TO.C,C79*%
X106350000Y-105550000D03*
X107310000Y-105550000D03*
%TD*%
D31*
%TO.C,TP4*%
X179500000Y-122640000D03*
%TD*%
D24*
%TO.C,C44*%
X117280599Y-79860800D03*
X117280599Y-80820800D03*
%TD*%
D22*
%TO.C,R23*%
X110125000Y-104045000D03*
X110125000Y-103025000D03*
%TD*%
D24*
%TO.C,C93*%
X175475000Y-102095000D03*
X175475000Y-103055000D03*
%TD*%
D25*
%TO.C,C56*%
X193289850Y-117810000D03*
X194249850Y-117810000D03*
%TD*%
D45*
%TO.C,H1*%
X134709500Y-89135000D03*
%TD*%
D44*
%TO.C,U16*%
X103275000Y-103025000D03*
X102875000Y-103025000D03*
X102475000Y-103025000D03*
X103275000Y-102625000D03*
X102875000Y-102625000D03*
X102475000Y-102625000D03*
%TD*%
D32*
%TO.C,U17*%
X108250001Y-103624998D03*
X108250001Y-103125000D03*
X108250001Y-102624998D03*
X108250001Y-102124999D03*
X106349999Y-102124999D03*
X106349999Y-102624998D03*
X106349999Y-103125000D03*
X106349999Y-103624998D03*
D33*
X107300000Y-103424996D03*
D34*
X107300000Y-102875000D03*
D33*
X107300000Y-102324999D03*
%TD*%
D47*
%TO.C,U14*%
X190249999Y-93993000D03*
X189600001Y-93993000D03*
X188949999Y-93993000D03*
X188300001Y-93993000D03*
D46*
X187331900Y-94961101D03*
X187331900Y-95611099D03*
X187331900Y-96261101D03*
X187331900Y-96911099D03*
D47*
X188300001Y-97879200D03*
X188949999Y-97879200D03*
X189600001Y-97879200D03*
X190249999Y-97879200D03*
D46*
X191218100Y-96911099D03*
X191218100Y-96261101D03*
X191218100Y-95611099D03*
X191218100Y-94961101D03*
D48*
X189275000Y-95936100D03*
%TD*%
D55*
%TO.C,FB1*%
X115230599Y-78415800D03*
X115230599Y-81565800D03*
%TD*%
D25*
%TO.C,C49*%
X193345000Y-113025000D03*
X194305000Y-113025000D03*
%TD*%
D36*
%TO.C,R6*%
X190675000Y-113910000D03*
X190675000Y-114930000D03*
%TD*%
D47*
%TO.C,U18*%
X106050001Y-111157000D03*
X106699999Y-111157000D03*
X107350001Y-111157000D03*
X107999999Y-111157000D03*
D46*
X108968100Y-110188899D03*
X108968100Y-109538901D03*
X108968100Y-108888899D03*
X108968100Y-108238901D03*
D47*
X107999999Y-107270800D03*
X107350001Y-107270800D03*
X106699999Y-107270800D03*
X106050001Y-107270800D03*
D46*
X105081900Y-108238901D03*
X105081900Y-108888899D03*
X105081900Y-109538901D03*
X105081900Y-110188899D03*
D48*
X107025000Y-109213900D03*
%TD*%
D24*
%TO.C,C29*%
X173625000Y-102095000D03*
X173625000Y-103055000D03*
%TD*%
D56*
%TO.C,U21*%
X112303900Y-119300000D03*
X112303900Y-118800001D03*
X112303900Y-118300002D03*
X110703700Y-118300002D03*
X110703700Y-118800001D03*
X110703700Y-119300000D03*
%TD*%
D37*
%TO.C,C13*%
X146824500Y-108097500D03*
X146184500Y-108097500D03*
%TD*%
D23*
%TO.C,C80*%
X102875000Y-104300000D03*
X101915000Y-104300000D03*
%TD*%
D16*
%TO.C,C25*%
X121750000Y-103055000D03*
X121750000Y-102095000D03*
%TD*%
D30*
%TO.C,C24*%
X149494500Y-108097500D03*
X150134500Y-108097500D03*
%TD*%
D22*
%TO.C,R16*%
X195100000Y-102835000D03*
X195100000Y-101815000D03*
%TD*%
D36*
%TO.C,R12*%
X190675000Y-115850000D03*
X190675000Y-116870000D03*
%TD*%
D16*
%TO.C,C67*%
X189625000Y-118780000D03*
X189625000Y-117820000D03*
%TD*%
D17*
%TO.C,J5*%
X95950000Y-104525000D03*
D21*
X97275000Y-105850000D03*
D20*
X97275000Y-103200000D03*
D19*
X94625000Y-105850000D03*
D18*
X94625000Y-103200000D03*
%TD*%
D40*
%TO.C,C40*%
X121708899Y-79565800D03*
X121708899Y-81115800D03*
%TD*%
D50*
%TO.C,R1*%
X182255000Y-90225000D03*
X183275000Y-90225000D03*
%TD*%
D45*
%TO.C,H5*%
X125686000Y-94985000D03*
%TD*%
D31*
%TO.C,TP8*%
X182500000Y-116640000D03*
%TD*%
D37*
%TO.C,C14*%
X146824500Y-108797500D03*
X146184500Y-108797500D03*
%TD*%
D16*
%TO.C,C100*%
X119900000Y-103055000D03*
X119900000Y-102095000D03*
%TD*%
D45*
%TO.C,H4*%
X161609500Y-116035000D03*
%TD*%
D17*
%TO.C,J8*%
X198925000Y-108025000D03*
D18*
X197600000Y-106700000D03*
D19*
X197600000Y-109350000D03*
D20*
X200250000Y-106700000D03*
D21*
X200250000Y-109350000D03*
%TD*%
D22*
%TO.C,R9*%
X188625000Y-120820000D03*
X188625000Y-119800000D03*
%TD*%
D45*
%TO.C,H8*%
X170686000Y-110185000D03*
%TD*%
D57*
%TO.C,C38*%
X113218699Y-76965800D03*
X113218699Y-75415800D03*
%TD*%
D16*
%TO.C,C59*%
X189625000Y-114900000D03*
X189625000Y-113940000D03*
%TD*%
D30*
%TO.C,C21*%
X149494500Y-110197500D03*
X150134500Y-110197500D03*
%TD*%
D26*
%TO.C,U5*%
X203600000Y-72730000D03*
X201060000Y-72730000D03*
X198520000Y-72730000D03*
X195980000Y-72730000D03*
X193440000Y-72730000D03*
X190900000Y-72730000D03*
X188360000Y-72730000D03*
X185820000Y-72730000D03*
X183280000Y-72730000D03*
X180740000Y-72730000D03*
X178200000Y-72730000D03*
X175660000Y-72730000D03*
X173120000Y-72730000D03*
X170580000Y-72730000D03*
X170580000Y-75270000D03*
X170580000Y-77810000D03*
X170580000Y-80350000D03*
X170580000Y-82890000D03*
X170580000Y-85430000D03*
X170580000Y-87970000D03*
X173120000Y-87970000D03*
X175660000Y-87970000D03*
X178200000Y-87970000D03*
X180740000Y-87970000D03*
X183280000Y-87970000D03*
X185820000Y-87970000D03*
X188360000Y-87970000D03*
X190900000Y-87970000D03*
X193440000Y-87970000D03*
X195980000Y-87970000D03*
X198520000Y-87970000D03*
X201060000Y-87970000D03*
X203600000Y-87970000D03*
X201060000Y-85430000D03*
X175660000Y-85430000D03*
X178200000Y-85430000D03*
X175660000Y-82890000D03*
X178200000Y-82890000D03*
X175660000Y-80350000D03*
X178200000Y-80350000D03*
X175660000Y-77810000D03*
X178200000Y-77810000D03*
X175660000Y-75270000D03*
X178200000Y-75270000D03*
%TD*%
D16*
%TO.C,C33*%
X203075000Y-90810000D03*
X203075000Y-89850000D03*
%TD*%
D24*
%TO.C,C30*%
X174550000Y-102095000D03*
X174550000Y-103055000D03*
%TD*%
D22*
%TO.C,R7*%
X188625000Y-114930000D03*
X188625000Y-113910000D03*
%TD*%
D37*
%TO.C,C4*%
X146824500Y-94972500D03*
X146184500Y-94972500D03*
%TD*%
D31*
%TO.C,TP1*%
X110750000Y-84225000D03*
%TD*%
D24*
%TO.C,C94*%
X176400000Y-102095000D03*
X176400000Y-103055000D03*
%TD*%
D16*
%TO.C,C65*%
X189625000Y-116840000D03*
X189625000Y-115880000D03*
%TD*%
D37*
%TO.C,C18*%
X146824500Y-111597500D03*
X146184500Y-111597500D03*
%TD*%
D30*
%TO.C,C12*%
X149494500Y-97072500D03*
X150134500Y-97072500D03*
%TD*%
D16*
%TO.C,C101*%
X200300000Y-90810000D03*
X200300000Y-89850000D03*
%TD*%
D25*
%TO.C,C98*%
X112315000Y-99175000D03*
X113275000Y-99175000D03*
%TD*%
D32*
%TO.C,U13*%
X188049999Y-101525002D03*
X188049999Y-102025000D03*
X188049999Y-102525002D03*
X188049999Y-103025001D03*
X189950001Y-103025001D03*
X189950001Y-102525002D03*
X189950001Y-102025000D03*
X189950001Y-101525002D03*
D33*
X189000000Y-101725004D03*
D34*
X189000000Y-102275000D03*
D33*
X189000000Y-102825001D03*
%TD*%
D37*
%TO.C,C3*%
X146824500Y-95672500D03*
X146184500Y-95672500D03*
%TD*%
D45*
%TO.C,H3*%
X134709500Y-116035000D03*
%TD*%
D22*
%TO.C,R13*%
X188625000Y-116870000D03*
X188625000Y-115850000D03*
%TD*%
D37*
%TO.C,C1*%
X146824500Y-97072500D03*
X146184500Y-97072500D03*
%TD*%
D25*
%TO.C,C97*%
X112315000Y-98250000D03*
X113275000Y-98250000D03*
%TD*%
D36*
%TO.C,R26*%
X105425000Y-99605000D03*
X105425000Y-100625000D03*
%TD*%
D23*
%TO.C,C70*%
X189950000Y-99600000D03*
X188990000Y-99600000D03*
%TD*%
D16*
%TO.C,C64*%
X187625000Y-112950000D03*
X187625000Y-111990000D03*
%TD*%
D31*
%TO.C,TP6*%
X182500000Y-120640000D03*
%TD*%
D58*
%TO.C,R3*%
X121780599Y-82565800D03*
X120130599Y-82565800D03*
%TD*%
M02*
